<svg xmlns="http://www.w3.org/2000/svg" viewBox="0 0 32 32" fill="none">
  <defs>
    <linearGradient id="grad" x1="0%" y1="0%" x2="100%" y2="100%">
      <stop offset="0%" style="stop-color:#6366f1"/>
      <stop offset="100%" style="stop-color:#a855f7"/>
    </linearGradient>
  </defs>
  <rect width="32" height="32" rx="8" fill="url(#grad)"/>
  <path d="M16 8C11.58 8 8 11.58 8 16C8 20.42 11.58 24 16 24C20.42 24 24 20.42 24 16C24 11.58 20.42 8 16 8ZM16 10C19.31 10 22 12.69 22 16C22 19.31 19.31 22 16 22C12.69 22 10 19.31 10 16C10 12.69 12.69 10 16 10ZM16 12C15.45 12 15 12.45 15 13V15.59L13.29 17.29C12.9 17.68 12.9 18.32 13.29 18.71C13.68 19.1 14.32 19.1 14.71 18.71L16.71 16.71C16.89 16.53 17 16.28 17 16V13C17 12.45 16.55 12 16 12Z" fill="white" fill-opacity="0.9"/>
  <circle cx="16" cy="16" r="2" fill="white"/>
  <circle cx="11" cy="14" r="1.5" fill="white" fill-opacity="0.6"/>
  <circle cx="21" cy="14" r="1.5" fill="white" fill-opacity="0.6"/>
  <circle cx="13" cy="20" r="1.5" fill="white" fill-opacity="0.6"/>
  <circle cx="19" cy="20" r="1.5" fill="white" fill-opacity="0.6"/>
</svg>
